<mxfile host="65bd71144e">
    <diagram id="tr8WCDj-hul7nBdrf4UF" name="Страница 1">
        <mxGraphModel dx="5496" dy="3128" grid="1" gridSize="10" guides="1" tooltips="1" connect="0" arrows="1" fold="1" page="1" pageScale="1" pageWidth="827" pageHeight="1169" math="0" shadow="0">
            <root>
                <mxCell id="0"/>
                <mxCell id="1" parent="0"/>
                <mxCell id="2" style="edgeStyle=orthogonalEdgeStyle;rounded=0;orthogonalLoop=1;jettySize=auto;html=1;" parent="1" source="3" edge="1">
                    <mxGeometry relative="1" as="geometry">
                        <mxPoint x="375" y="150" as="targetPoint"/>
                    </mxGeometry>
                </mxCell>
                <mxCell id="3" value="Запуск" style="rounded=1;whiteSpace=wrap;html=1;arcSize=50;" parent="1" vertex="1">
                    <mxGeometry x="305" y="20" width="140" height="40" as="geometry"/>
                </mxCell>
                <mxCell id="5" value="#include &amp;lt;iostream&amp;gt;&lt;br&gt;using namespace std;&lt;br&gt;int collis = 0;&lt;br&gt;string names[100] =&lt;br&gt;string postname[100] =&lt;br&gt;string patr[100] =&lt;br&gt;string num[100] =&lt;br&gt;string sum[100] =" style="strokeWidth=2;html=1;shape=mxgraph.flowchart.annotation_2;align=left;labelPosition=right;pointerEvents=1;" parent="1" vertex="1">
                    <mxGeometry x="458.01" y="30" width="20" height="100" as="geometry"/>
                </mxCell>
                <mxCell id="6" value="" style="endArrow=none;dashed=1;html=1;entryX=0;entryY=0.5;entryDx=0;entryDy=0;entryPerimeter=0;" parent="1" target="5" edge="1">
                    <mxGeometry width="50" height="50" relative="1" as="geometry">
                        <mxPoint x="375" y="80" as="sourcePoint"/>
                        <mxPoint x="465" y="70" as="targetPoint"/>
                    </mxGeometry>
                </mxCell>
                <mxCell id="7" value="Конец" style="rounded=1;whiteSpace=wrap;html=1;arcSize=50;" parent="1" vertex="1">
                    <mxGeometry x="305" y="1610" width="140" height="40" as="geometry"/>
                </mxCell>
                <mxCell id="10" value="return 0;&lt;br&gt;}" style="strokeWidth=2;html=1;shape=mxgraph.flowchart.annotation_2;align=left;labelPosition=right;pointerEvents=1;" parent="1" vertex="1">
                    <mxGeometry x="480.01" y="1560" width="20" height="60" as="geometry"/>
                </mxCell>
                <mxCell id="11" value="" style="endArrow=none;dashed=1;html=1;entryX=0;entryY=0.5;entryDx=0;entryDy=0;entryPerimeter=0;" parent="1" edge="1">
                    <mxGeometry width="50" height="50" relative="1" as="geometry">
                        <mxPoint x="380.01" y="1590" as="sourcePoint"/>
                        <mxPoint x="480.01" y="1590" as="targetPoint"/>
                    </mxGeometry>
                </mxCell>
                <mxCell id="383" style="edgeStyle=orthogonalEdgeStyle;html=1;rounded=0;" parent="1" source="354" target="382" edge="1">
                    <mxGeometry relative="1" as="geometry"/>
                </mxCell>
                <mxCell id="354" value="int main() {" style="ellipse;whiteSpace=wrap;html=1;" parent="1" vertex="1">
                    <mxGeometry x="315" y="150" width="120" height="60" as="geometry"/>
                </mxCell>
                <mxCell id="386" style="edgeStyle=orthogonalEdgeStyle;rounded=0;html=1;" parent="1" source="382" target="384" edge="1">
                    <mxGeometry relative="1" as="geometry"/>
                </mxCell>
                <mxCell id="382" value="setlocale(LC_ALL, &quot;Russian&quot;);" style="rounded=0;whiteSpace=wrap;html=1;" parent="1" vertex="1">
                    <mxGeometry x="300" y="250" width="150" height="40" as="geometry"/>
                </mxCell>
                <mxCell id="387" style="edgeStyle=orthogonalEdgeStyle;rounded=0;html=1;" parent="1" source="384" target="385" edge="1">
                    <mxGeometry relative="1" as="geometry"/>
                </mxCell>
                <mxCell id="384" value="srand(time(0));" style="rounded=0;whiteSpace=wrap;html=1;" parent="1" vertex="1">
                    <mxGeometry x="300" y="310" width="150" height="40" as="geometry"/>
                </mxCell>
                <mxCell id="391" style="edgeStyle=orthogonalEdgeStyle;rounded=0;html=1;" parent="1" source="385" edge="1">
                    <mxGeometry relative="1" as="geometry">
                        <mxPoint x="375.11111111111086" y="440" as="targetPoint"/>
                    </mxGeometry>
                </mxCell>
                <mxCell id="385" value="int size;" style="rounded=0;whiteSpace=wrap;html=1;" parent="1" vertex="1">
                    <mxGeometry x="300" y="370" width="150" height="40" as="geometry"/>
                </mxCell>
                <mxCell id="450" style="edgeStyle=orthogonalEdgeStyle;rounded=0;html=1;entryX=-0.005;entryY=0.525;entryDx=0;entryDy=0;entryPerimeter=0;" parent="1" edge="1">
                    <mxGeometry relative="1" as="geometry">
                        <Array as="points">
                            <mxPoint x="1995" y="600"/>
                            <mxPoint x="1840" y="600"/>
                            <mxPoint x="1840" y="387"/>
                        </Array>
                        <mxPoint x="1899.0500000000002" y="387" as="targetPoint"/>
                    </mxGeometry>
                </mxCell>
                <mxCell id="576" style="edgeStyle=orthogonalEdgeStyle;rounded=0;html=1;" parent="1" target="7" edge="1">
                    <mxGeometry relative="1" as="geometry">
                        <mxPoint x="375.01" y="1560" as="sourcePoint"/>
                    </mxGeometry>
                </mxCell>
                <mxCell id="579" style="edgeStyle=none;html=1;" edge="1" parent="1" source="577" target="578">
                    <mxGeometry relative="1" as="geometry"/>
                </mxCell>
                <mxCell id="577" value="struct human" style="ellipse;whiteSpace=wrap;html=1;" vertex="1" parent="1">
                    <mxGeometry x="780" y="180" width="130" height="60" as="geometry"/>
                </mxCell>
                <mxCell id="581" style="edgeStyle=none;html=1;" edge="1" parent="1" source="578" target="580">
                    <mxGeometry relative="1" as="geometry"/>
                </mxCell>
                <mxCell id="578" value="string fullname = &quot;Null&quot;;" style="rounded=0;whiteSpace=wrap;html=1;" vertex="1" parent="1">
                    <mxGeometry x="765" y="270" width="160" height="50" as="geometry"/>
                </mxCell>
                <mxCell id="583" style="edgeStyle=none;html=1;" edge="1" parent="1" source="580" target="582">
                    <mxGeometry relative="1" as="geometry"/>
                </mxCell>
                <mxCell id="580" value="string num = &quot;Null&quot;;" style="rounded=0;whiteSpace=wrap;html=1;" vertex="1" parent="1">
                    <mxGeometry x="765" y="340" width="160" height="50" as="geometry"/>
                </mxCell>
                <mxCell id="582" value="string sum = &quot;Null&quot;;" style="rounded=0;whiteSpace=wrap;html=1;" vertex="1" parent="1">
                    <mxGeometry x="765" y="410" width="160" height="50" as="geometry"/>
                </mxCell>
                <mxCell id="584" style="edgeStyle=none;html=1;" edge="1" parent="1" source="585">
                    <mxGeometry relative="1" as="geometry">
                        <mxPoint x="1160" y="280" as="targetPoint"/>
                    </mxGeometry>
                </mxCell>
                <mxCell id="585" value="struct hash_table" style="ellipse;whiteSpace=wrap;html=1;" vertex="1" parent="1">
                    <mxGeometry x="1095" y="190" width="130" height="60" as="geometry"/>
                </mxCell>
                <mxCell id="593" style="edgeStyle=none;html=1;" edge="1" parent="1" source="591" target="592">
                    <mxGeometry relative="1" as="geometry"/>
                </mxCell>
                <mxCell id="591" value="human* arr;" style="rounded=0;whiteSpace=wrap;html=1;" vertex="1" parent="1">
                    <mxGeometry x="1080" y="280" width="160" height="50" as="geometry"/>
                </mxCell>
                <mxCell id="596" style="edgeStyle=none;html=1;" edge="1" parent="1" source="592" target="594">
                    <mxGeometry relative="1" as="geometry"/>
                </mxCell>
                <mxCell id="592" value="&lt;div&gt;hash_table(int size)&lt;/div&gt;&lt;div&gt;&lt;span&gt;&#9;&lt;/span&gt;{&lt;/div&gt;&lt;div&gt;&lt;span&gt;&#9;&#9;&lt;/span&gt;arr = new human[size];&lt;/div&gt;&lt;div&gt;&lt;span&gt;&#9;&lt;/span&gt;}&lt;/div&gt;" style="rounded=0;whiteSpace=wrap;html=1;" vertex="1" parent="1">
                    <mxGeometry x="1080" y="350" width="160" height="80" as="geometry"/>
                </mxCell>
                <mxCell id="597" style="edgeStyle=none;html=1;" edge="1" parent="1" source="594" target="595">
                    <mxGeometry relative="1" as="geometry"/>
                </mxCell>
                <mxCell id="594" value="void add(human tmp, int size);" style="shape=process;whiteSpace=wrap;html=1;backgroundOutline=1;" vertex="1" parent="1">
                    <mxGeometry x="1075" y="460" width="170" height="50" as="geometry"/>
                </mxCell>
                <mxCell id="595" value="void findIndex(string num, int size);" style="shape=process;whiteSpace=wrap;html=1;backgroundOutline=1;" vertex="1" parent="1">
                    <mxGeometry x="1075" y="535" width="170" height="50" as="geometry"/>
                </mxCell>
                <mxCell id="600" style="edgeStyle=none;html=1;" edge="1" parent="1" source="598" target="599">
                    <mxGeometry relative="1" as="geometry"/>
                </mxCell>
                <mxCell id="598" value="string rand_name()" style="ellipse;whiteSpace=wrap;html=1;" vertex="1" parent="1">
                    <mxGeometry x="1380" y="190" width="130" height="60" as="geometry"/>
                </mxCell>
                <mxCell id="599" value="return (postname[rand() % 100] + &quot; &quot; + names[rand() % 100] + &quot; &quot; + patr[rand() % 100]);" style="ellipse;whiteSpace=wrap;html=1;" vertex="1" parent="1">
                    <mxGeometry x="1325" y="280" width="240" height="100" as="geometry"/>
                </mxCell>
                <mxCell id="603" style="edgeStyle=none;html=1;" edge="1" parent="1" source="601" target="602">
                    <mxGeometry relative="1" as="geometry"/>
                </mxCell>
                <mxCell id="601" value="string rand_num()" style="ellipse;whiteSpace=wrap;html=1;" vertex="1" parent="1">
                    <mxGeometry x="1680" y="190" width="130" height="60" as="geometry"/>
                </mxCell>
                <mxCell id="602" value="return num[rand() % 100];" style="ellipse;whiteSpace=wrap;html=1;" vertex="1" parent="1">
                    <mxGeometry x="1680" y="290" width="130" height="60" as="geometry"/>
                </mxCell>
                <mxCell id="606" style="edgeStyle=none;html=1;rounded=0;" edge="1" parent="1" source="604" target="605">
                    <mxGeometry relative="1" as="geometry"/>
                </mxCell>
                <mxCell id="604" value="string rand_sum()" style="ellipse;whiteSpace=wrap;html=1;" vertex="1" parent="1">
                    <mxGeometry x="1950" y="190" width="130" height="60" as="geometry"/>
                </mxCell>
                <mxCell id="605" value="return sum[rand() % 100];" style="ellipse;whiteSpace=wrap;html=1;" vertex="1" parent="1">
                    <mxGeometry x="1950" y="290" width="130" height="60" as="geometry"/>
                </mxCell>
                <mxCell id="609" style="edgeStyle=orthogonalEdgeStyle;rounded=0;html=1;" edge="1" parent="1" source="607" target="608">
                    <mxGeometry relative="1" as="geometry"/>
                </mxCell>
                <mxCell id="607" value="human create_human()" style="ellipse;whiteSpace=wrap;html=1;" vertex="1" parent="1">
                    <mxGeometry x="2185" y="190" width="130" height="60" as="geometry"/>
                </mxCell>
                <mxCell id="612" style="edgeStyle=orthogonalEdgeStyle;rounded=0;html=1;" edge="1" parent="1" source="608" target="610">
                    <mxGeometry relative="1" as="geometry"/>
                </mxCell>
                <mxCell id="608" value="human tmp;" style="rounded=0;whiteSpace=wrap;html=1;" vertex="1" parent="1">
                    <mxGeometry x="2190" y="300" width="120" height="40" as="geometry"/>
                </mxCell>
                <mxCell id="614" style="edgeStyle=orthogonalEdgeStyle;rounded=0;html=1;" edge="1" parent="1" source="610" target="613">
                    <mxGeometry relative="1" as="geometry"/>
                </mxCell>
                <mxCell id="610" value="tmp.fullname = rand_name();" style="rounded=0;whiteSpace=wrap;html=1;" vertex="1" parent="1">
                    <mxGeometry x="2190" y="370" width="120" height="40" as="geometry"/>
                </mxCell>
                <mxCell id="616" style="edgeStyle=orthogonalEdgeStyle;rounded=0;html=1;" edge="1" parent="1" source="613" target="615">
                    <mxGeometry relative="1" as="geometry"/>
                </mxCell>
                <mxCell id="613" value="tmp.num = rand_num();" style="rounded=0;whiteSpace=wrap;html=1;" vertex="1" parent="1">
                    <mxGeometry x="2190" y="430" width="120" height="40" as="geometry"/>
                </mxCell>
                <mxCell id="618" style="edgeStyle=orthogonalEdgeStyle;rounded=0;html=1;" edge="1" parent="1" source="615" target="617">
                    <mxGeometry relative="1" as="geometry"/>
                </mxCell>
                <mxCell id="615" value="tmp.sum = rand_sum();" style="rounded=0;whiteSpace=wrap;html=1;" vertex="1" parent="1">
                    <mxGeometry x="2190" y="495" width="120" height="40" as="geometry"/>
                </mxCell>
                <mxCell id="617" value="return tmp;" style="ellipse;whiteSpace=wrap;html=1;" vertex="1" parent="1">
                    <mxGeometry x="2185" y="554" width="130" height="60" as="geometry"/>
                </mxCell>
                <mxCell id="621" style="edgeStyle=orthogonalEdgeStyle;rounded=0;html=1;" edge="1" parent="1" source="619" target="620">
                    <mxGeometry relative="1" as="geometry"/>
                </mxCell>
                <mxCell id="619" value="void fill_human(human* arr, int count)" style="ellipse;whiteSpace=wrap;html=1;" vertex="1" parent="1">
                    <mxGeometry x="2530" y="190" width="130" height="60" as="geometry"/>
                </mxCell>
                <mxCell id="623" style="edgeStyle=orthogonalEdgeStyle;rounded=0;html=1;" edge="1" parent="1" source="620" target="622">
                    <mxGeometry relative="1" as="geometry"/>
                </mxCell>
                <mxCell id="620" value="for (int i = 0; i &amp;lt; count; i++)" style="shape=hexagon;perimeter=hexagonPerimeter2;whiteSpace=wrap;html=1;fixedSize=1;" vertex="1" parent="1">
                    <mxGeometry x="2512.5" y="290" width="165" height="50" as="geometry"/>
                </mxCell>
                <mxCell id="624" style="edgeStyle=orthogonalEdgeStyle;rounded=0;html=1;entryX=-0.004;entryY=0.48;entryDx=0;entryDy=0;entryPerimeter=0;" edge="1" parent="1" source="622" target="620">
                    <mxGeometry relative="1" as="geometry">
                        <Array as="points">
                            <mxPoint x="2595" y="440"/>
                            <mxPoint x="2480" y="440"/>
                            <mxPoint x="2480" y="314"/>
                        </Array>
                    </mxGeometry>
                </mxCell>
                <mxCell id="622" value="arr[i] = create_human();" style="rounded=0;whiteSpace=wrap;html=1;" vertex="1" parent="1">
                    <mxGeometry x="2520" y="380" width="150" height="40" as="geometry"/>
                </mxCell>
                <mxCell id="627" style="edgeStyle=orthogonalEdgeStyle;rounded=0;html=1;" edge="1" parent="1" source="625" target="626">
                    <mxGeometry relative="1" as="geometry"/>
                </mxCell>
                <mxCell id="625" value="void show(const human tmp)" style="ellipse;whiteSpace=wrap;html=1;" vertex="1" parent="1">
                    <mxGeometry x="2880" y="190" width="130" height="60" as="geometry"/>
                </mxCell>
                <mxCell id="626" value="&lt;div&gt;cout &amp;lt;&amp;lt; &quot;ФИО:&amp;nbsp; &amp;nbsp; &amp;nbsp; &amp;nbsp; &amp;nbsp; &quot; &amp;lt;&amp;lt; tmp.fullname&lt;/div&gt;&lt;div&gt;&lt;span&gt;&#9;&#9;&lt;/span&gt; &amp;lt;&amp;lt; &quot;\nНомер счета:&amp;nbsp; &quot; &amp;lt;&amp;lt; tmp.num&lt;/div&gt;&lt;div&gt;&lt;span&gt;&#9;&#9;&lt;/span&gt; &amp;lt;&amp;lt; &quot;\nСумма:&amp;nbsp; &amp;nbsp; &amp;nbsp; &amp;nbsp; &quot; &amp;lt;&amp;lt; tmp.sum &amp;lt;&amp;lt; endl &amp;lt;&amp;lt; endl;&lt;/div&gt;" style="shape=parallelogram;perimeter=parallelogramPerimeter;whiteSpace=wrap;html=1;fixedSize=1;" vertex="1" parent="1">
                    <mxGeometry x="2795" y="280" width="300" height="90" as="geometry"/>
                </mxCell>
                <mxCell id="630" style="edgeStyle=orthogonalEdgeStyle;rounded=0;html=1;" edge="1" parent="1" source="628" target="629">
                    <mxGeometry relative="1" as="geometry"/>
                </mxCell>
                <mxCell id="628" value="void showTable(hash_table* table, int size)" style="ellipse;whiteSpace=wrap;html=1;" vertex="1" parent="1">
                    <mxGeometry x="3223.75" y="180" width="130" height="60" as="geometry"/>
                </mxCell>
                <mxCell id="632" style="edgeStyle=orthogonalEdgeStyle;rounded=0;html=1;" edge="1" parent="1" source="629" target="631">
                    <mxGeometry relative="1" as="geometry"/>
                </mxCell>
                <mxCell id="629" value="for (int i = 0; i &amp;lt; size; i++)" style="shape=hexagon;perimeter=hexagonPerimeter2;whiteSpace=wrap;html=1;fixedSize=1;" vertex="1" parent="1">
                    <mxGeometry x="3205" y="276.25" width="167.5" height="57.5" as="geometry"/>
                </mxCell>
                <mxCell id="633" style="edgeStyle=orthogonalEdgeStyle;rounded=0;html=1;entryX=0.005;entryY=0.52;entryDx=0;entryDy=0;entryPerimeter=0;" edge="1" parent="1" source="631" target="629">
                    <mxGeometry relative="1" as="geometry">
                        <Array as="points">
                            <mxPoint x="3289" y="440"/>
                            <mxPoint x="3170" y="440"/>
                            <mxPoint x="3170" y="306"/>
                        </Array>
                    </mxGeometry>
                </mxCell>
                <mxCell id="631" value="show(table-&amp;gt;arr[i]);" style="shape=process;whiteSpace=wrap;html=1;backgroundOutline=1;" vertex="1" parent="1">
                    <mxGeometry x="3208.75" y="360" width="160" height="50" as="geometry"/>
                </mxCell>
                <mxCell id="636" style="edgeStyle=orthogonalEdgeStyle;rounded=0;html=1;" edge="1" parent="1" source="634" target="635">
                    <mxGeometry relative="1" as="geometry"/>
                </mxCell>
                <mxCell id="634" value="void print_human(human* arr, int count)" style="ellipse;whiteSpace=wrap;html=1;" vertex="1" parent="1">
                    <mxGeometry x="3550" y="180" width="130" height="60" as="geometry"/>
                </mxCell>
                <mxCell id="638" style="edgeStyle=orthogonalEdgeStyle;rounded=0;html=1;" edge="1" parent="1" source="635" target="637">
                    <mxGeometry relative="1" as="geometry"/>
                </mxCell>
                <mxCell id="635" value="for (int i = 0; i &amp;lt; count; i++)" style="shape=hexagon;perimeter=hexagonPerimeter2;whiteSpace=wrap;html=1;fixedSize=1;" vertex="1" parent="1">
                    <mxGeometry x="3531.25" y="276.25" width="167.5" height="57.5" as="geometry"/>
                </mxCell>
                <mxCell id="639" style="edgeStyle=orthogonalEdgeStyle;rounded=0;html=1;entryX=-0.002;entryY=0.514;entryDx=0;entryDy=0;entryPerimeter=0;" edge="1" parent="1" source="637" target="635">
                    <mxGeometry relative="1" as="geometry">
                        <Array as="points">
                            <mxPoint x="3615" y="430"/>
                            <mxPoint x="3490" y="430"/>
                            <mxPoint x="3490" y="306"/>
                        </Array>
                    </mxGeometry>
                </mxCell>
                <mxCell id="637" value="show(arr[i]);" style="shape=process;whiteSpace=wrap;html=1;backgroundOutline=1;" vertex="1" parent="1">
                    <mxGeometry x="3535" y="360" width="160" height="50" as="geometry"/>
                </mxCell>
                <mxCell id="642" style="edgeStyle=orthogonalEdgeStyle;rounded=0;html=1;" edge="1" parent="1" source="640" target="641">
                    <mxGeometry relative="1" as="geometry"/>
                </mxCell>
                <mxCell id="640" value="int hash_f(string str, int size)" style="ellipse;whiteSpace=wrap;html=1;" vertex="1" parent="1">
                    <mxGeometry x="3900" y="180" width="130" height="60" as="geometry"/>
                </mxCell>
                <mxCell id="645" style="edgeStyle=orthogonalEdgeStyle;rounded=0;html=1;" edge="1" parent="1" source="641" target="643">
                    <mxGeometry relative="1" as="geometry"/>
                </mxCell>
                <mxCell id="641" value="long double a = (0.68 * stoi(str));" style="rounded=0;whiteSpace=wrap;html=1;" vertex="1" parent="1">
                    <mxGeometry x="3885" y="270" width="160" height="50" as="geometry"/>
                </mxCell>
                <mxCell id="646" style="edgeStyle=orthogonalEdgeStyle;rounded=0;html=1;" edge="1" parent="1" source="643" target="644">
                    <mxGeometry relative="1" as="geometry"/>
                </mxCell>
                <mxCell id="643" value="double a1 = size * (a - static_cast&amp;lt;int&amp;gt;(a));" style="rounded=0;whiteSpace=wrap;html=1;" vertex="1" parent="1">
                    <mxGeometry x="3885" y="350" width="160" height="50" as="geometry"/>
                </mxCell>
                <mxCell id="644" value="return static_cast&amp;lt;int&amp;gt;(a1);" style="ellipse;whiteSpace=wrap;html=1;" vertex="1" parent="1">
                    <mxGeometry x="3900" y="430" width="130" height="60" as="geometry"/>
                </mxCell>
                <mxCell id="649" style="edgeStyle=orthogonalEdgeStyle;rounded=0;html=1;" edge="1" parent="1" source="647" target="648">
                    <mxGeometry relative="1" as="geometry"/>
                </mxCell>
                <mxCell id="647" value="void hash_table::add(human tmp, int size)" style="ellipse;whiteSpace=wrap;html=1;" vertex="1" parent="1">
                    <mxGeometry x="4230" y="180" width="130" height="60" as="geometry"/>
                </mxCell>
                <mxCell id="651" style="edgeStyle=orthogonalEdgeStyle;rounded=0;html=1;" edge="1" parent="1" source="648" target="650">
                    <mxGeometry relative="1" as="geometry"/>
                </mxCell>
                <mxCell id="648" value="int index = hash_f(tmp.num, size);" style="rounded=0;whiteSpace=wrap;html=1;" vertex="1" parent="1">
                    <mxGeometry x="4215" y="270" width="160" height="50" as="geometry"/>
                </mxCell>
                <mxCell id="653" style="edgeStyle=orthogonalEdgeStyle;rounded=0;html=1;" edge="1" parent="1" source="650" target="652">
                    <mxGeometry relative="1" as="geometry"/>
                </mxCell>
                <mxCell id="650" value="int hash = index;" style="rounded=0;whiteSpace=wrap;html=1;" vertex="1" parent="1">
                    <mxGeometry x="4215" y="340" width="160" height="50" as="geometry"/>
                </mxCell>
                <mxCell id="655" value="1" style="edgeStyle=orthogonalEdgeStyle;rounded=0;html=1;" edge="1" parent="1" source="652" target="654">
                    <mxGeometry relative="1" as="geometry">
                        <Array as="points">
                            <mxPoint x="4125" y="480"/>
                        </Array>
                    </mxGeometry>
                </mxCell>
                <mxCell id="660" value="0" style="edgeStyle=orthogonalEdgeStyle;rounded=0;html=1;" edge="1" parent="1" source="652" target="659">
                    <mxGeometry relative="1" as="geometry">
                        <Array as="points">
                            <mxPoint x="4560" y="480"/>
                        </Array>
                    </mxGeometry>
                </mxCell>
                <mxCell id="652" value="if (arr[index].fullname == &quot;Null&quot;)" style="rhombus;whiteSpace=wrap;html=1;" vertex="1" parent="1">
                    <mxGeometry x="4190" y="440" width="210" height="80" as="geometry"/>
                </mxCell>
                <mxCell id="657" style="edgeStyle=orthogonalEdgeStyle;rounded=0;html=1;" edge="1" parent="1" source="654" target="656">
                    <mxGeometry relative="1" as="geometry"/>
                </mxCell>
                <mxCell id="654" value="arr[index] = tmp;" style="rounded=0;whiteSpace=wrap;html=1;" vertex="1" parent="1">
                    <mxGeometry x="4045" y="555" width="160" height="50" as="geometry"/>
                </mxCell>
                <mxCell id="656" value="return;" style="ellipse;whiteSpace=wrap;html=1;" vertex="1" parent="1">
                    <mxGeometry x="4070" y="640" width="110" height="50" as="geometry"/>
                </mxCell>
                <mxCell id="662" style="edgeStyle=orthogonalEdgeStyle;rounded=0;html=1;" edge="1" parent="1" source="659" target="661">
                    <mxGeometry relative="1" as="geometry"/>
                </mxCell>
                <mxCell id="675" style="edgeStyle=orthogonalEdgeStyle;rounded=0;html=1;" edge="1" parent="1" source="659" target="674">
                    <mxGeometry relative="1" as="geometry">
                        <Array as="points">
                            <mxPoint x="4770" y="560"/>
                            <mxPoint x="4770" y="1090"/>
                            <mxPoint x="4560" y="1090"/>
                        </Array>
                    </mxGeometry>
                </mxCell>
                <mxCell id="659" value="while (index &amp;lt; size)" style="rhombus;whiteSpace=wrap;html=1;" vertex="1" parent="1">
                    <mxGeometry x="4480" y="520" width="160" height="80" as="geometry"/>
                </mxCell>
                <mxCell id="664" value="1" style="edgeStyle=orthogonalEdgeStyle;rounded=0;html=1;" edge="1" parent="1" source="661" target="663">
                    <mxGeometry relative="1" as="geometry">
                        <Array as="points">
                            <mxPoint x="4390" y="665"/>
                        </Array>
                    </mxGeometry>
                </mxCell>
                <mxCell id="668" value="0" style="edgeStyle=orthogonalEdgeStyle;rounded=0;html=1;" edge="1" parent="1" source="661">
                    <mxGeometry x="-0.8405" relative="1" as="geometry">
                        <mxPoint x="4559.999999999999" y="870" as="targetPoint"/>
                        <Array as="points">
                            <mxPoint x="4730" y="665"/>
                            <mxPoint x="4730" y="870"/>
                        </Array>
                        <mxPoint as="offset"/>
                    </mxGeometry>
                </mxCell>
                <mxCell id="661" value="if (arr[index].fullname == &quot;Null&quot;)" style="rhombus;whiteSpace=wrap;html=1;" vertex="1" parent="1">
                    <mxGeometry x="4455" y="627.5" width="210" height="75" as="geometry"/>
                </mxCell>
                <mxCell id="666" style="edgeStyle=orthogonalEdgeStyle;rounded=0;html=1;" edge="1" parent="1" source="663" target="665">
                    <mxGeometry relative="1" as="geometry"/>
                </mxCell>
                <mxCell id="663" value="arr[index] = tmp;" style="rounded=0;whiteSpace=wrap;html=1;" vertex="1" parent="1">
                    <mxGeometry x="4300" y="725" width="160" height="50" as="geometry"/>
                </mxCell>
                <mxCell id="667" style="edgeStyle=orthogonalEdgeStyle;rounded=0;html=1;" edge="1" parent="1" source="665">
                    <mxGeometry relative="1" as="geometry">
                        <mxPoint x="4559.999999999999" y="870" as="targetPoint"/>
                        <Array as="points">
                            <mxPoint x="4380" y="870"/>
                        </Array>
                    </mxGeometry>
                </mxCell>
                <mxCell id="665" value="return;" style="ellipse;whiteSpace=wrap;html=1;" vertex="1" parent="1">
                    <mxGeometry x="4325" y="800" width="110" height="50" as="geometry"/>
                </mxCell>
                <mxCell id="672" style="edgeStyle=orthogonalEdgeStyle;rounded=0;html=1;" edge="1" parent="1" source="669" target="671">
                    <mxGeometry relative="1" as="geometry"/>
                </mxCell>
                <mxCell id="669" value="index++;" style="rounded=0;whiteSpace=wrap;html=1;" vertex="1" parent="1">
                    <mxGeometry x="4480" y="910" width="160" height="50" as="geometry"/>
                </mxCell>
                <mxCell id="670" value="" style="endArrow=classic;html=1;rounded=0;" edge="1" parent="1" target="669">
                    <mxGeometry width="50" height="50" relative="1" as="geometry">
                        <mxPoint x="4560" y="870" as="sourcePoint"/>
                        <mxPoint x="4570" y="870" as="targetPoint"/>
                    </mxGeometry>
                </mxCell>
                <mxCell id="673" style="edgeStyle=orthogonalEdgeStyle;rounded=0;html=1;entryX=-0.001;entryY=0.5;entryDx=0;entryDy=0;entryPerimeter=0;" edge="1" parent="1" source="671" target="659">
                    <mxGeometry relative="1" as="geometry">
                        <Array as="points">
                            <mxPoint x="4560" y="1060"/>
                            <mxPoint x="4270" y="1060"/>
                            <mxPoint x="4270" y="560"/>
                        </Array>
                    </mxGeometry>
                </mxCell>
                <mxCell id="671" value="collis++;" style="rounded=0;whiteSpace=wrap;html=1;" vertex="1" parent="1">
                    <mxGeometry x="4480" y="980" width="160" height="50" as="geometry"/>
                </mxCell>
                <mxCell id="678" value="1" style="edgeStyle=orthogonalEdgeStyle;rounded=0;html=1;" edge="1" parent="1" source="674" target="676">
                    <mxGeometry relative="1" as="geometry"/>
                </mxCell>
                <mxCell id="674" value="if (index &amp;gt;= size)" style="rhombus;whiteSpace=wrap;html=1;" vertex="1" parent="1">
                    <mxGeometry x="4500" y="1110" width="120" height="60" as="geometry"/>
                </mxCell>
                <mxCell id="679" style="edgeStyle=orthogonalEdgeStyle;rounded=0;html=1;" edge="1" parent="1" source="676" target="677">
                    <mxGeometry relative="1" as="geometry"/>
                </mxCell>
                <mxCell id="676" value="index = 0;" style="rounded=0;whiteSpace=wrap;html=1;" vertex="1" parent="1">
                    <mxGeometry x="4330" y="1190" width="160" height="50" as="geometry"/>
                </mxCell>
                <mxCell id="681" style="edgeStyle=orthogonalEdgeStyle;rounded=0;html=1;" edge="1" parent="1" source="677" target="680">
                    <mxGeometry relative="1" as="geometry"/>
                </mxCell>
                <mxCell id="677" value="collis++;" style="rounded=0;whiteSpace=wrap;html=1;" vertex="1" parent="1">
                    <mxGeometry x="4330" y="1265" width="160" height="50" as="geometry"/>
                </mxCell>
                <mxCell id="683" style="edgeStyle=orthogonalEdgeStyle;rounded=0;html=1;" edge="1" parent="1" source="680" target="682">
                    <mxGeometry relative="1" as="geometry"/>
                </mxCell>
                <mxCell id="680" value="while (index &amp;lt; hash)" style="rhombus;whiteSpace=wrap;html=1;" vertex="1" parent="1">
                    <mxGeometry x="4350" y="1340" width="120" height="60" as="geometry"/>
                </mxCell>
                <mxCell id="685" value="1" style="edgeStyle=orthogonalEdgeStyle;rounded=0;html=1;" edge="1" parent="1" source="682" target="684">
                    <mxGeometry relative="1" as="geometry">
                        <Array as="points">
                            <mxPoint x="4290" y="1460"/>
                        </Array>
                    </mxGeometry>
                </mxCell>
                <mxCell id="688" value="0" style="edgeStyle=orthogonalEdgeStyle;rounded=0;html=1;" edge="1" parent="1" source="682">
                    <mxGeometry relative="1" as="geometry">
                        <mxPoint x="4409.999999999999" y="1640" as="targetPoint"/>
                    </mxGeometry>
                </mxCell>
                <mxCell id="682" value="if (arr[index].fullname == &quot;Null&quot;)" style="rhombus;whiteSpace=wrap;html=1;" vertex="1" parent="1">
                    <mxGeometry x="4345" y="1430" width="130" height="60" as="geometry"/>
                </mxCell>
                <mxCell id="687" style="edgeStyle=orthogonalEdgeStyle;rounded=0;html=1;" edge="1" parent="1" source="684" target="686">
                    <mxGeometry relative="1" as="geometry"/>
                </mxCell>
                <mxCell id="684" value="arr[index] = tmp;" style="rounded=0;whiteSpace=wrap;html=1;" vertex="1" parent="1">
                    <mxGeometry x="4220" y="1495" width="140" height="45" as="geometry"/>
                </mxCell>
                <mxCell id="686" value="return;" style="ellipse;whiteSpace=wrap;html=1;" vertex="1" parent="1">
                    <mxGeometry x="4240" y="1570" width="100" height="50" as="geometry"/>
                </mxCell>
                <mxCell id="691" style="edgeStyle=orthogonalEdgeStyle;rounded=0;html=1;" edge="1" parent="1" source="689" target="690">
                    <mxGeometry relative="1" as="geometry"/>
                </mxCell>
                <mxCell id="689" value="index++;" style="rounded=0;whiteSpace=wrap;html=1;" vertex="1" parent="1">
                    <mxGeometry x="4340" y="1640" width="140" height="45" as="geometry"/>
                </mxCell>
                <mxCell id="692" style="edgeStyle=orthogonalEdgeStyle;rounded=0;html=1;entryX=-0.005;entryY=0.494;entryDx=0;entryDy=0;entryPerimeter=0;" edge="1" parent="1" source="690" target="680">
                    <mxGeometry relative="1" as="geometry">
                        <mxPoint x="4339.999999999999" y="1370" as="targetPoint"/>
                        <Array as="points">
                            <mxPoint x="4410" y="1780"/>
                            <mxPoint x="4190" y="1780"/>
                            <mxPoint x="4190" y="1370"/>
                        </Array>
                    </mxGeometry>
                </mxCell>
                <mxCell id="690" value="collis++;" style="rounded=0;whiteSpace=wrap;html=1;" vertex="1" parent="1">
                    <mxGeometry x="4340" y="1710" width="140" height="45" as="geometry"/>
                </mxCell>
                <mxCell id="695" style="edgeStyle=orthogonalEdgeStyle;rounded=0;html=1;" edge="1" parent="1" source="693" target="694">
                    <mxGeometry relative="1" as="geometry"/>
                </mxCell>
                <mxCell id="693" value="void hash_table::findIndex(string num, int size)" style="ellipse;whiteSpace=wrap;html=1;" vertex="1" parent="1">
                    <mxGeometry x="5200" y="180" width="200" height="60" as="geometry"/>
                </mxCell>
                <mxCell id="697" style="edgeStyle=orthogonalEdgeStyle;rounded=0;html=1;" edge="1" parent="1" source="694" target="696">
                    <mxGeometry relative="1" as="geometry"/>
                </mxCell>
                <mxCell id="694" value="int hash = hash_f(num, size);" style="rounded=0;whiteSpace=wrap;html=1;" vertex="1" parent="1">
                    <mxGeometry x="5215" y="270" width="170" height="50" as="geometry"/>
                </mxCell>
                <mxCell id="699" style="edgeStyle=orthogonalEdgeStyle;rounded=0;html=1;" edge="1" parent="1" source="696" target="698">
                    <mxGeometry relative="1" as="geometry"/>
                </mxCell>
                <mxCell id="696" value="int index = hash;" style="rounded=0;whiteSpace=wrap;html=1;" vertex="1" parent="1">
                    <mxGeometry x="5215" y="340" width="170" height="50" as="geometry"/>
                </mxCell>
                <mxCell id="702" style="edgeStyle=orthogonalEdgeStyle;rounded=0;html=1;" edge="1" parent="1" source="698" target="700">
                    <mxGeometry relative="1" as="geometry"/>
                </mxCell>
                <mxCell id="705" style="edgeStyle=orthogonalEdgeStyle;rounded=0;html=1;" edge="1" parent="1" source="698" target="704">
                    <mxGeometry relative="1" as="geometry">
                        <Array as="points">
                            <mxPoint x="5410" y="460"/>
                            <mxPoint x="5410" y="630"/>
                            <mxPoint x="5300" y="630"/>
                        </Array>
                    </mxGeometry>
                </mxCell>
                <mxCell id="698" value="while (arr[index].num != num &amp;amp;&amp;amp; index &amp;lt; size)" style="rhombus;whiteSpace=wrap;html=1;" vertex="1" parent="1">
                    <mxGeometry x="5215" y="430" width="170" height="60" as="geometry"/>
                </mxCell>
                <mxCell id="703" style="edgeStyle=orthogonalEdgeStyle;rounded=0;html=1;entryX=-0.001;entryY=0.507;entryDx=0;entryDy=0;entryPerimeter=0;" edge="1" parent="1" source="700" target="698">
                    <mxGeometry relative="1" as="geometry">
                        <Array as="points">
                            <mxPoint x="5300" y="610"/>
                            <mxPoint x="5180" y="610"/>
                            <mxPoint x="5180" y="460"/>
                        </Array>
                    </mxGeometry>
                </mxCell>
                <mxCell id="700" value="index++;" style="rounded=0;whiteSpace=wrap;html=1;" vertex="1" parent="1">
                    <mxGeometry x="5215" y="530" width="170" height="50" as="geometry"/>
                </mxCell>
                <mxCell id="707" value="1" style="edgeStyle=orthogonalEdgeStyle;rounded=0;html=1;" edge="1" parent="1" source="704" target="706">
                    <mxGeometry relative="1" as="geometry"/>
                </mxCell>
                <mxCell id="704" value="if (index &amp;gt;= size)" style="rhombus;whiteSpace=wrap;html=1;" vertex="1" parent="1">
                    <mxGeometry x="5215" y="650" width="170" height="60" as="geometry"/>
                </mxCell>
                <mxCell id="709" style="edgeStyle=orthogonalEdgeStyle;rounded=0;html=1;" edge="1" parent="1" source="706" target="708">
                    <mxGeometry relative="1" as="geometry"/>
                </mxCell>
                <mxCell id="706" value="index = 0;" style="rounded=0;whiteSpace=wrap;html=1;" vertex="1" parent="1">
                    <mxGeometry x="5215" y="760" width="170" height="50" as="geometry"/>
                </mxCell>
                <mxCell id="711" style="edgeStyle=orthogonalEdgeStyle;rounded=0;html=1;" edge="1" parent="1" source="708" target="710">
                    <mxGeometry relative="1" as="geometry"/>
                </mxCell>
                <mxCell id="714" style="edgeStyle=orthogonalEdgeStyle;rounded=0;html=1;" edge="1" parent="1" source="708" target="713">
                    <mxGeometry relative="1" as="geometry">
                        <Array as="points">
                            <mxPoint x="5420" y="870"/>
                            <mxPoint x="5420" y="1040"/>
                            <mxPoint x="5300" y="1040"/>
                        </Array>
                    </mxGeometry>
                </mxCell>
                <mxCell id="708" value="while (arr[index].num != num &amp;amp;&amp;amp; index &amp;lt; hash)" style="rhombus;whiteSpace=wrap;html=1;" vertex="1" parent="1">
                    <mxGeometry x="5215" y="840" width="170" height="60" as="geometry"/>
                </mxCell>
                <mxCell id="712" style="edgeStyle=orthogonalEdgeStyle;rounded=0;html=1;entryX=0.001;entryY=0.498;entryDx=0;entryDy=0;entryPerimeter=0;" edge="1" parent="1" source="710" target="708">
                    <mxGeometry relative="1" as="geometry">
                        <Array as="points">
                            <mxPoint x="5300" y="1020"/>
                            <mxPoint x="5180" y="1020"/>
                            <mxPoint x="5180" y="870"/>
                        </Array>
                    </mxGeometry>
                </mxCell>
                <mxCell id="710" value="index++;" style="rounded=0;whiteSpace=wrap;html=1;" vertex="1" parent="1">
                    <mxGeometry x="5215" y="930" width="170" height="50" as="geometry"/>
                </mxCell>
                <mxCell id="716" value="1" style="edgeStyle=orthogonalEdgeStyle;rounded=0;html=1;" edge="1" parent="1" source="713" target="715">
                    <mxGeometry relative="1" as="geometry"/>
                </mxCell>
                <mxCell id="718" value="0" style="edgeStyle=orthogonalEdgeStyle;rounded=0;html=1;" edge="1" parent="1" source="713" target="717">
                    <mxGeometry relative="1" as="geometry"/>
                </mxCell>
                <mxCell id="713" value="if (index &amp;gt;= hash)" style="rhombus;whiteSpace=wrap;html=1;" vertex="1" parent="1">
                    <mxGeometry x="5215" y="1060" width="170" height="60" as="geometry"/>
                </mxCell>
                <mxCell id="715" value="cout &amp;lt;&amp;lt; &quot;Такого человека нет&quot;;" style="shape=parallelogram;perimeter=parallelogramPerimeter;whiteSpace=wrap;html=1;fixedSize=1;" vertex="1" parent="1">
                    <mxGeometry x="5090" y="1130" width="120" height="60" as="geometry"/>
                </mxCell>
                <mxCell id="717" value="cout &amp;lt;&amp;lt; &quot;Такой человек есть по индексу: &quot; &amp;lt;&amp;lt; index &amp;lt;&amp;lt; endl &amp;lt;&amp;lt; endl;" style="shape=parallelogram;perimeter=parallelogramPerimeter;whiteSpace=wrap;html=1;fixedSize=1;" vertex="1" parent="1">
                    <mxGeometry x="5410" y="1130" width="120" height="60" as="geometry"/>
                </mxCell>
                <mxCell id="721" style="edgeStyle=orthogonalEdgeStyle;rounded=0;html=1;" edge="1" parent="1" source="719" target="720">
                    <mxGeometry relative="1" as="geometry"/>
                </mxCell>
                <mxCell id="719" value="cout &amp;lt;&amp;lt; &quot;Введите кол-во элементов: &quot;;" style="shape=parallelogram;perimeter=parallelogramPerimeter;whiteSpace=wrap;html=1;fixedSize=1;" vertex="1" parent="1">
                    <mxGeometry x="275" y="440" width="200" height="50" as="geometry"/>
                </mxCell>
                <mxCell id="723" style="edgeStyle=orthogonalEdgeStyle;rounded=0;html=1;" edge="1" parent="1" source="720" target="722">
                    <mxGeometry relative="1" as="geometry"/>
                </mxCell>
                <mxCell id="720" value="cin &amp;gt;&amp;gt; size;" style="shape=parallelogram;perimeter=parallelogramPerimeter;whiteSpace=wrap;html=1;fixedSize=1;" vertex="1" parent="1">
                    <mxGeometry x="275" y="520" width="200" height="50" as="geometry"/>
                </mxCell>
                <mxCell id="725" style="edgeStyle=orthogonalEdgeStyle;rounded=0;html=1;" edge="1" parent="1" source="722" target="724">
                    <mxGeometry relative="1" as="geometry"/>
                </mxCell>
                <mxCell id="722" value="cout &amp;lt;&amp;lt; endl;" style="shape=parallelogram;perimeter=parallelogramPerimeter;whiteSpace=wrap;html=1;fixedSize=1;" vertex="1" parent="1">
                    <mxGeometry x="275" y="600" width="200" height="50" as="geometry"/>
                </mxCell>
                <mxCell id="727" style="edgeStyle=orthogonalEdgeStyle;rounded=0;html=1;" edge="1" parent="1" source="724" target="726">
                    <mxGeometry relative="1" as="geometry"/>
                </mxCell>
                <mxCell id="724" value="human* arr = new human[size];" style="rounded=0;whiteSpace=wrap;html=1;" vertex="1" parent="1">
                    <mxGeometry x="315" y="690" width="120" height="60" as="geometry"/>
                </mxCell>
                <mxCell id="729" style="edgeStyle=orthogonalEdgeStyle;rounded=0;html=1;" edge="1" parent="1" source="726" target="728">
                    <mxGeometry relative="1" as="geometry"/>
                </mxCell>
                <mxCell id="726" value="hash_table table(size);" style="rounded=0;whiteSpace=wrap;html=1;" vertex="1" parent="1">
                    <mxGeometry x="315" y="780" width="120" height="60" as="geometry"/>
                </mxCell>
                <mxCell id="731" style="edgeStyle=orthogonalEdgeStyle;rounded=0;html=1;" edge="1" parent="1" source="728" target="730">
                    <mxGeometry relative="1" as="geometry"/>
                </mxCell>
                <mxCell id="728" value="fill_human(arr, size);" style="shape=process;whiteSpace=wrap;html=1;backgroundOutline=1;" vertex="1" parent="1">
                    <mxGeometry x="295" y="880" width="160" height="50" as="geometry"/>
                </mxCell>
                <mxCell id="733" style="edgeStyle=orthogonalEdgeStyle;rounded=0;html=1;" edge="1" parent="1" source="730" target="732">
                    <mxGeometry relative="1" as="geometry"/>
                </mxCell>
                <mxCell id="736" style="edgeStyle=orthogonalEdgeStyle;rounded=0;html=1;" edge="1" parent="1" source="730" target="735">
                    <mxGeometry relative="1" as="geometry">
                        <Array as="points">
                            <mxPoint x="500" y="995"/>
                            <mxPoint x="500" y="1160"/>
                            <mxPoint x="375" y="1160"/>
                        </Array>
                    </mxGeometry>
                </mxCell>
                <mxCell id="730" value="for (int i = 0; i &amp;lt; size; i++)" style="shape=hexagon;perimeter=hexagonPerimeter2;whiteSpace=wrap;html=1;fixedSize=1;" vertex="1" parent="1">
                    <mxGeometry x="285" y="970" width="180" height="50" as="geometry"/>
                </mxCell>
                <mxCell id="734" style="edgeStyle=orthogonalEdgeStyle;rounded=0;html=1;entryX=0.004;entryY=0.518;entryDx=0;entryDy=0;entryPerimeter=0;" edge="1" parent="1" source="732" target="730">
                    <mxGeometry relative="1" as="geometry">
                        <Array as="points">
                            <mxPoint x="375" y="1140"/>
                            <mxPoint x="260" y="1140"/>
                            <mxPoint x="260" y="996"/>
                        </Array>
                    </mxGeometry>
                </mxCell>
                <mxCell id="732" value="table.add(arr[i], size);" style="shape=process;whiteSpace=wrap;html=1;backgroundOutline=1;" vertex="1" parent="1">
                    <mxGeometry x="295" y="1060" width="160" height="50" as="geometry"/>
                </mxCell>
                <mxCell id="738" style="edgeStyle=orthogonalEdgeStyle;rounded=0;html=1;" edge="1" parent="1" source="735" target="737">
                    <mxGeometry relative="1" as="geometry"/>
                </mxCell>
                <mxCell id="735" value="showTable(&amp;amp;table, size);" style="shape=process;whiteSpace=wrap;html=1;backgroundOutline=1;" vertex="1" parent="1">
                    <mxGeometry x="295" y="1180" width="160" height="50" as="geometry"/>
                </mxCell>
                <mxCell id="740" value="" style="edgeStyle=orthogonalEdgeStyle;rounded=0;html=1;" edge="1" parent="1" source="737" target="739">
                    <mxGeometry relative="1" as="geometry"/>
                </mxCell>
                <mxCell id="737" value="table.findIndex(&quot;346356&quot;, size);" style="shape=process;whiteSpace=wrap;html=1;backgroundOutline=1;" vertex="1" parent="1">
                    <mxGeometry x="282.5" y="1265" width="185" height="55" as="geometry"/>
                </mxCell>
                <mxCell id="742" style="edgeStyle=orthogonalEdgeStyle;rounded=0;html=1;" edge="1" parent="1" source="739" target="741">
                    <mxGeometry relative="1" as="geometry"/>
                </mxCell>
                <mxCell id="739" value="cout &amp;lt;&amp;lt; endl &amp;lt;&amp;lt; endl;" style="shape=parallelogram;perimeter=parallelogramPerimeter;whiteSpace=wrap;html=1;fixedSize=1;" vertex="1" parent="1">
                    <mxGeometry x="290" y="1350" width="170" height="50" as="geometry"/>
                </mxCell>
                <mxCell id="744" style="edgeStyle=orthogonalEdgeStyle;rounded=0;html=1;entryX=0.504;entryY=0.003;entryDx=0;entryDy=0;entryPerimeter=0;" edge="1" parent="1" source="741" target="743">
                    <mxGeometry relative="1" as="geometry"/>
                </mxCell>
                <mxCell id="741" value="cout &amp;lt;&amp;lt; &quot;Кол-во коллизий для &quot; &amp;lt;&amp;lt; size &amp;lt;&amp;lt; &quot; записей: &quot; &amp;lt;&amp;lt; collis &amp;lt;&amp;lt; endl;" style="shape=parallelogram;perimeter=parallelogramPerimeter;whiteSpace=wrap;html=1;fixedSize=1;" vertex="1" parent="1">
                    <mxGeometry x="240" y="1435" width="270" height="50" as="geometry"/>
                </mxCell>
                <mxCell id="743" value="delete[] arr;" style="rounded=0;whiteSpace=wrap;html=1;" vertex="1" parent="1">
                    <mxGeometry x="320" y="1520" width="110" height="40" as="geometry"/>
                </mxCell>
            </root>
        </mxGraphModel>
    </diagram>
</mxfile>